<svg width="211" height="140" viewBox="0 0 211 140" fill="none" xmlns="http://www.w3.org/2000/svg">
<path d="M58.0473 60.3868H33.9044C31.932 60.3868 30.333 58.7878 30.333 56.8154C30.333 54.8429 31.932 53.244 33.9044 53.244H58.9044C62.8493 53.244 66.0473 50.046 66.0473 46.1011V42.5297C66.0473 40.5572 67.6463 38.9583 69.6187 38.9583C71.5912 38.9583 73.1902 40.5572 73.1902 42.5297V46.1011C73.1902 50.046 76.3881 53.244 80.333 53.244H176.762C178.734 53.244 180.333 54.8429 180.333 56.8154C180.333 58.7878 178.734 60.3868 176.762 60.3868H81.1902C76.7719 60.3868 73.1902 63.9685 73.1902 68.3868V78.244C73.1902 80.2164 71.5912 81.8154 69.6187 81.8154C67.6463 81.8154 66.0473 80.2164 66.0473 78.244V68.3868C66.0473 63.9685 62.4656 60.3868 58.0473 60.3868Z" fill="#F2BE22" stroke="#F2BE22"/>
<path d="M58.9043 103.244L69.6186 77.5295L80.3329 103.244H58.9043Z" stroke="#F2BE22" stroke-width="8"/>
<path d="M78.9046 105.387H60.3331C58.3607 105.387 56.7617 106.986 56.7617 108.958C56.7617 110.931 58.3607 112.53 60.3331 112.53H78.9046C80.877 112.53 82.476 110.931 82.476 108.958C82.476 106.986 80.877 105.387 78.9046 105.387Z" fill="#F2BE22" stroke="#F2BE22" stroke-width="8"/>
<path d="M101.761 53.2439H92.4757C90.5033 53.2439 88.9043 54.8429 88.9043 56.8153C88.9043 58.7878 90.5033 60.3868 92.4757 60.3868H101.761C103.734 60.3868 105.333 58.7878 105.333 56.8153C105.333 54.8429 103.734 53.2439 101.761 53.2439Z" fill="#F2BE22" stroke="#F2BE22" stroke-width="8"/>
<path d="M50.3327 53.2439H41.047C39.0746 53.2439 37.4756 54.8429 37.4756 56.8153C37.4756 58.7878 39.0746 60.3868 41.047 60.3868H50.3327C52.3052 60.3868 53.9042 58.7878 53.9042 56.8153C53.9042 54.8429 52.3052 53.2439 50.3327 53.2439Z" fill="#F2BE22" stroke="#F2BE22" stroke-width="8"/>
<circle cx="69.6387" cy="36.2202" r="4.75" stroke="#F2BE22" stroke-width="8"/>
</svg>
