<svg width="211" height="140" viewBox="0 0 211 140" fill="none" xmlns="http://www.w3.org/2000/svg">
<path d="M147.491 46.7124C135.411 34.6301 130.036 29.2292 127.655 26.8401C126.517 25.6979 125.049 25.7471 123.908 26.8866C115.729 35.0544 82.7702 67.9713 63.1411 87.6483C61.5827 89.2105 61.5967 91.7278 63.157 93.2882L82.05 112.181C83.6121 113.743 86.1448 113.743 87.7069 112.181L147.504 52.3836C149.067 50.8215 149.053 48.2748 147.491 46.7124Z" fill="#F2BE22" stroke="#F2BE22" stroke-width="8" stroke-linecap="round"/>
<path d="M72.6064 86.3738L84.8792 98.6465" stroke="white" stroke-width="4" stroke-linecap="round"/>
<path d="M88.9697 70.01L101.242 82.2827" stroke="white" stroke-width="4" stroke-linecap="round"/>
<path d="M105.333 53.6465L117.606 65.9192" stroke="white" stroke-width="4" stroke-linecap="round"/>
<path d="M121.696 37.283L133.969 49.5557" stroke="white" stroke-width="4" stroke-linecap="round"/>
<path d="M80.7881 78.1919L88.9699 86.3737" stroke="white" stroke-width="4" stroke-linecap="round"/>
<path d="M97.1514 61.8284L105.333 70.0102" stroke="white" stroke-width="4" stroke-linecap="round"/>
<path d="M113.515 45.4646L121.696 53.6464" stroke="white" stroke-width="4" stroke-linecap="round"/>
</svg>
