<svg width="210" height="140" viewBox="0 0 210 140" fill="none" xmlns="http://www.w3.org/2000/svg">
<mask id="mask0_431_225" style="mask-type:alpha" maskUnits="userSpaceOnUse" x="55" y="20" width="100" height="100">
<rect x="55" y="20" width="100" height="100" fill="#D9D9D9"/>
</mask>
<g mask="url(#mask0_431_225)">
<path d="M63.333 107.5V99.1666H100.833V52.6041C99.0275 51.9791 97.465 51.0069 96.1455 49.6874C94.8261 48.368 93.8538 46.8055 93.2288 44.9999H79.9997L92.4997 74.1666C92.4997 77.6388 91.0761 80.5902 88.2288 83.0207C85.3816 85.4513 81.9441 86.6666 77.9163 86.6666C73.8886 86.6666 70.4511 85.4513 67.6038 83.0207C64.7566 80.5902 63.333 77.6388 63.333 74.1666L75.833 44.9999H67.4997V36.6666H93.2288C94.0622 34.236 95.5552 32.2395 97.708 30.677C99.8608 29.1145 102.291 28.3333 105 28.3333C107.708 28.3333 110.139 29.1145 112.291 30.677C114.444 32.2395 115.937 34.236 116.771 36.6666H142.5V44.9999H134.166L146.666 74.1666C146.666 77.6388 145.243 80.5902 142.396 83.0207C139.548 85.4513 136.111 86.6666 132.083 86.6666C128.055 86.6666 124.618 85.4513 121.771 83.0207C118.923 80.5902 117.5 77.6388 117.5 74.1666L130 44.9999H116.771C116.146 46.8055 115.173 48.368 113.854 49.6874C112.534 51.0069 110.972 51.9791 109.166 52.6041V99.1666H146.666V107.5H63.333ZM124.271 74.1666H139.896L132.083 56.0416L124.271 74.1666ZM70.1038 74.1666H85.7288L77.9163 56.0416L70.1038 74.1666ZM105 44.9999C106.18 44.9999 107.17 44.6006 107.968 43.802C108.767 43.0034 109.166 42.0138 109.166 40.8333C109.166 39.6527 108.767 38.6631 107.968 37.8645C107.17 37.0659 106.18 36.6666 105 36.6666C103.819 36.6666 102.83 37.0659 102.031 37.8645C101.232 38.6631 100.833 39.6527 100.833 40.8333C100.833 42.0138 101.232 43.0034 102.031 43.802C102.83 44.6006 103.819 44.9999 105 44.9999Z" fill="#F2BE22"/>
</g>
</svg>
