<svg width="211" height="140" viewBox="0 0 211 140" fill="none" xmlns="http://www.w3.org/2000/svg">
<mask id="mask0_431_214" style="mask-type:alpha" maskUnits="userSpaceOnUse" x="50" y="15" width="111" height="110">
<rect x="50.666" y="15" width="110" height="110" fill="#D9D9D9"/>
</mask>
<g mask="url(#mask0_431_214)">
<path d="M69 111.25V37.9167C69 35.3958 69.8976 33.2378 71.6927 31.4427C73.4878 29.6476 75.6458 28.75 78.1667 28.75H105.667C108.188 28.75 110.345 29.6476 112.141 31.4427C113.936 33.2378 114.833 35.3958 114.833 37.9167V70H119.417C121.938 70 124.095 70.8976 125.891 72.6927C127.686 74.4879 128.583 76.6458 128.583 79.1667V99.7917C128.583 101.09 129.023 102.179 129.901 103.057C130.78 103.936 131.868 104.375 133.167 104.375C134.465 104.375 135.554 103.936 136.432 103.057C137.311 102.179 137.75 101.09 137.75 99.7917V66.7917C137.062 67.1736 136.337 67.4219 135.573 67.5365C134.809 67.651 134.007 67.7083 133.167 67.7083C129.958 67.7083 127.247 66.6007 125.031 64.3854C122.816 62.1701 121.708 59.4583 121.708 56.25C121.708 53.8056 122.377 51.6094 123.714 49.6615C125.05 47.7135 126.826 46.3194 129.042 45.4792L119.417 35.8542L124.229 31.0417L141.188 47.5417C142.333 48.6875 143.193 50.0243 143.766 51.5521C144.339 53.0799 144.625 54.6458 144.625 56.25V99.7917C144.625 103 143.517 105.712 141.302 107.927C139.087 110.142 136.375 111.25 133.167 111.25C129.958 111.25 127.247 110.142 125.031 107.927C122.816 105.712 121.708 103 121.708 99.7917V76.875H114.833V111.25H69ZM78.1667 60.8333H105.667V37.9167H78.1667V60.8333ZM133.167 60.8333C134.465 60.8333 135.554 60.3941 136.432 59.5156C137.311 58.6372 137.75 57.5486 137.75 56.25C137.75 54.9514 137.311 53.8628 136.432 52.9844C135.554 52.1059 134.465 51.6667 133.167 51.6667C131.868 51.6667 130.78 52.1059 129.901 52.9844C129.023 53.8628 128.583 54.9514 128.583 56.25C128.583 57.5486 129.023 58.6372 129.901 59.5156C130.78 60.3941 131.868 60.8333 133.167 60.8333Z" fill="#F2BE22"/>
</g>
</svg>
