<svg width="211" height="140" viewBox="0 0 211 140" fill="none" xmlns="http://www.w3.org/2000/svg">
<path d="M132.444 30.0125H71.5054C68.6942 30.0125 66.76 32.8361 67.7756 35.4575L69.7786 40.6275C69.9571 41.0883 70.0487 41.5783 70.0487 42.0725V105.987C70.0487 108.196 71.8396 109.987 74.0487 109.987H123.203C125.412 109.987 127.203 108.196 127.203 105.987V44.451C127.203 43.1129 127.872 41.8635 128.986 41.1218L134.662 37.3416C137.956 35.1473 136.403 30.0125 132.444 30.0125Z" fill="#F2BE22" stroke="#F2BE22" stroke-width="8"/>
<path d="M77.9756 60.7695H102.324" stroke="white" stroke-width="8" stroke-linecap="round"/>
<path d="M77.9756 73.0769H88.6889" stroke="white" stroke-width="8" stroke-linecap="round"/>
<path d="M77.9756 97.6907H88.6889" stroke="white" stroke-width="8" stroke-linecap="round"/>
<path d="M77.9756 85.3838H102.324" stroke="white" stroke-width="8" stroke-linecap="round"/>
</svg>
