<svg width="210" height="140" viewBox="0 0 210 140" fill="none" xmlns="http://www.w3.org/2000/svg">
<path d="M146.559 46.1765H63.4412C61.5407 46.1765 60 47.7172 60 49.6177C60 51.5182 61.5407 53.0589 63.4412 53.0589H146.559C148.459 53.0589 150 51.5182 150 49.6177C150 47.7172 148.459 46.1765 146.559 46.1765Z" fill="#F2BE22" stroke="#F2BE22" stroke-width="8"/>
<path d="M142 62.0588H68C63.5817 62.0588 60 65.6406 60 70.0588V85.8235C60 90.2418 63.5817 93.8235 68 93.8235H105H142C146.418 93.8235 150 90.2418 150 85.8235V70.0588C150 65.6406 146.418 62.0588 142 62.0588Z" fill="#F2BE22" stroke="#F2BE22" stroke-width="8"/>
<path d="M120.824 62.0588H89.1768C84.7585 62.0588 81.1768 65.6406 81.1768 70.0588V70.4706C81.1768 74.8889 84.7585 78.4706 89.1768 78.4706H105H120.824C125.242 78.4706 128.824 74.8889 128.824 70.4706V70.0588C128.824 65.6406 125.242 62.0588 120.824 62.0588Z" fill="white" stroke="#F2BE22" stroke-width="8"/>
<path d="M97.5883 85.8823C97.5883 87.6366 96.1661 89.0588 94.4118 89.0588C92.6575 89.0588 91.2354 87.6366 91.2354 85.8823C91.2354 84.128 92.6575 82.7058 94.4118 82.7058C96.1661 82.7058 97.5883 84.128 97.5883 85.8823Z" fill="white"/>
<ellipse cx="105" cy="85.8823" rx="3.17647" ry="3.17647" fill="white"/>
<ellipse cx="115.589" cy="85.8823" rx="3.17647" ry="3.17647" fill="white"/>
</svg>
