<svg width="210" height="140" viewBox="0 0 210 140" fill="none" xmlns="http://www.w3.org/2000/svg">
<g clip-path="url(#clip0_431_162)">
<mask id="mask0_431_162" style="mask-type:alpha" maskUnits="userSpaceOnUse" x="41" y="56" width="85" height="85">
<rect x="77.3555" y="56.991" width="60" height="60" transform="rotate(36.1128 77.3555 56.991)" fill="#D9D9D9"/>
</mask>
<g mask="url(#mask0_431_162)">
<path d="M69.2453 114.357C66.3618 112.253 64.6617 109.436 64.1451 105.905C63.6286 102.373 64.443 99.1374 66.5886 96.1965L70.6758 90.5941L74.1361 93.1185L71.5614 96.6476L70.0488 98.7209C68.6327 100.662 68.0981 102.818 68.445 105.189C68.7918 107.56 69.9168 109.439 71.8199 110.828C73.723 112.216 75.8564 112.714 78.2201 112.32C80.5837 111.927 82.4736 110.76 83.8897 108.819L87.9769 103.216C87.2392 102.047 86.8804 100.783 86.9004 99.423C86.9204 98.0632 87.3381 96.8245 88.1534 95.707C88.9687 94.5894 90.0207 93.8136 91.3095 93.3794C92.5982 92.9453 93.9118 92.901 95.2503 93.2466L98.7105 95.771C99.4482 96.9401 99.807 98.2045 99.787 99.5643C99.767 100.924 99.3493 102.163 98.534 103.28C97.7187 104.398 96.6613 105.181 95.3618 105.63C94.0623 106.079 92.7541 106.116 91.4371 105.741L87.3499 111.343C85.2043 114.284 82.3714 116.047 78.8511 116.633C75.3307 117.219 72.1288 116.461 69.2453 114.357Z" fill="#F2BE22"/>
</g>
<path d="M136.805 41.3189L136.167 40.8532C132.598 38.2492 127.593 39.0317 124.989 42.6011L96.2499 81.9938C93.6459 85.5631 94.4285 90.5676 97.9978 93.1716L98.6361 93.6373C102.205 96.2413 107.21 95.4588 109.814 91.8895L138.553 52.4968C141.157 48.9274 140.375 43.9229 136.805 41.3189Z" fill="#F2BE22" stroke="#F2BE22" stroke-width="8" stroke-linecap="round"/>
<path d="M90.4736 89.9097L104.038 99.8054" stroke="#F2BE22" stroke-width="8" stroke-linecap="round"/>
<path d="M145.034 43.6123L131.47 33.7166" stroke="#F2BE22" stroke-width="8" stroke-linecap="round"/>
<path d="M128.087 45.6194L100.718 82.8566" stroke="white" stroke-width="8" stroke-linecap="round"/>
<path d="M149.856 34.2856C147.742 37.1829 143.68 37.8181 140.783 35.7043C137.885 33.5906 137.25 29.5283 139.364 26.6309C141.478 23.7336 145.54 23.0984 148.437 25.2122C151.335 27.3259 151.97 31.3882 149.856 34.2856Z" stroke="#F2BE22" stroke-width="8"/>
</g>
<defs>
<clipPath id="clip0_431_162">
<rect width="210" height="140" fill="white"/>
</clipPath>
</defs>
</svg>
