<svg width="211" height="140" viewBox="0 0 211 140" fill="none" xmlns="http://www.w3.org/2000/svg">
<mask id="mask0_431_152" style="mask-type:alpha" maskUnits="userSpaceOnUse" x="60" y="25" width="91" height="90">
<rect x="60.333" y="25" width="90" height="90" fill="#D9D9D9"/>
</mask>
<g mask="url(#mask0_431_152)">
<path d="M67.833 107.5C67.833 100.562 68.7549 94.6406 70.5986 89.7344C72.4424 84.8281 74.8018 80.75 77.6768 77.5C80.5518 74.25 83.7705 71.7344 87.333 69.9531C90.8955 68.1719 94.3955 66.9375 97.833 66.25V55C89.2705 53.9375 82.1299 51.2969 76.4111 47.0781C70.6924 42.8594 67.833 38 67.833 32.5H142.833C142.833 38 139.974 42.8594 134.255 47.0781C128.536 51.2969 121.396 53.9375 112.833 55V66.25C116.271 66.9375 119.771 68.1719 123.333 69.9531C126.896 71.7344 130.114 74.25 132.989 77.5C135.864 80.75 138.224 84.8281 140.067 89.7344C141.911 94.6406 142.833 100.562 142.833 107.5H120.333V100H134.864C133.739 90.5 130.192 83.625 124.224 79.375C118.255 75.125 111.958 73 105.333 73C98.708 73 92.4111 75.125 86.4424 79.375C80.4736 83.625 76.9268 90.5 75.8018 100H90.333V107.5H67.833ZM105.333 107.5C103.271 107.5 101.505 106.766 100.036 105.297C98.5674 103.828 97.833 102.062 97.833 100C97.833 98.9375 98.0361 97.9688 98.4424 97.0938C98.8486 96.2187 99.3955 95.4375 100.083 94.75C101.583 93.25 104.114 91.6719 107.677 90.0156C111.239 88.3594 115.458 86.6875 120.333 85C118.583 89.875 116.896 94.0937 115.271 97.6562C113.646 101.219 112.083 103.75 110.583 105.25C109.896 105.937 109.114 106.484 108.239 106.891C107.364 107.297 106.396 107.5 105.333 107.5Z" fill="#F2BE22"/>
</g>
</svg>
