<svg width="211" height="140" viewBox="0 0 211 140" fill="none" xmlns="http://www.w3.org/2000/svg">
<path d="M150.227 46.9229H117.513C113.094 46.9229 109.513 50.5046 109.513 54.9228V100.769C109.513 105.017 112.957 108.461 117.205 108.461H147.666C152.085 108.461 155.666 104.879 155.666 100.461V81.0057C155.666 78.884 154.824 76.8491 153.323 75.3489L150.317 72.3429C148.817 70.8426 147.974 68.8077 147.974 66.686V65.6211C147.974 63.4994 148.817 61.4646 150.317 59.9643L154.073 56.2083C155.093 55.1882 155.666 53.8047 155.666 52.3621C155.666 49.3581 153.231 46.9229 150.227 46.9229Z" fill="#F2BE22" stroke="#FFFFDD" stroke-width="8"/>
<path d="M117.203 39.2309V31.5386" stroke="white" stroke-width="8" stroke-linecap="square"/>
<path d="M111.765 31.5386H61.1053C58.1013 31.5386 55.666 33.9738 55.666 36.9778C55.666 38.4204 56.2391 39.8039 57.2591 40.824L61.0152 44.58C62.5154 46.0803 63.3583 48.1151 63.3583 50.2369V51.1809C63.3583 53.3738 62.4581 55.4706 60.8683 56.9809L58.156 59.5576C56.5662 61.068 55.666 63.1647 55.666 65.3576V100.461C55.666 104.88 59.2477 108.461 63.666 108.461H109.204C113.623 108.461 117.204 104.88 117.204 100.461V65.6214C117.204 63.4997 116.361 61.4649 114.861 59.9646L111.855 56.9586C110.355 55.4583 109.512 53.4235 109.512 51.3017V50.2369C109.512 48.1151 110.355 46.0803 111.855 44.58L115.611 40.824C116.631 39.8039 117.204 38.4204 117.204 36.9778C117.204 33.9738 114.769 31.5386 111.765 31.5386Z" fill="#F2BE22" stroke="#FFFFDD" stroke-width="8"/>
</svg>
