<svg width="211" height="140" viewBox="0 0 211 140" fill="none" xmlns="http://www.w3.org/2000/svg">
<path d="M83.3313 87.5434V91.2658C83.3313 92.3205 82.9746 93.2046 82.2611 93.9181C81.5477 94.6315 80.6636 94.9883 79.6089 94.9883H75.8865C74.8318 94.9883 73.9477 94.6315 73.2343 93.9181C72.5208 93.2046 72.1641 92.3205 72.1641 91.2658V61.4864L79.9812 39.1519C80.3534 38.0351 81.0203 37.1356 81.982 36.4531C82.9436 35.7707 84.0138 35.4294 85.1926 35.4294H126.139C127.318 35.4294 128.388 35.7707 129.35 36.4531C130.311 37.1356 130.978 38.0351 131.351 39.1519L139.168 61.4864V91.2658C139.168 92.3205 138.811 93.2046 138.098 93.9181C137.384 94.6315 136.5 94.9883 135.445 94.9883H131.723C130.668 94.9883 129.784 94.6315 129.071 93.9181C128.357 93.2046 128 92.3205 128 91.2658V87.5434H83.3313ZM82.5869 54.0416H128.745L124.836 42.8743H86.4954L82.5869 54.0416ZM88.915 76.3761C90.466 76.3761 91.7844 75.8333 92.8701 74.7476C93.9558 73.6619 94.4986 72.3435 94.4986 70.7925C94.4986 69.2415 93.9558 67.9231 92.8701 66.8374C91.7844 65.7517 90.466 65.2089 88.915 65.2089C87.364 65.2089 86.0456 65.7517 84.9599 66.8374C83.8742 67.9231 83.3313 69.2415 83.3313 70.7925C83.3313 72.3435 83.8742 73.6619 84.9599 74.7476C86.0456 75.8333 87.364 76.3761 88.915 76.3761ZM122.417 76.3761C123.968 76.3761 125.286 75.8333 126.372 74.7476C127.458 73.6619 128 72.3435 128 70.7925C128 69.2415 127.458 67.9231 126.372 66.8374C125.286 65.7517 123.968 65.2089 122.417 65.2089C120.866 65.2089 119.547 65.7517 118.462 66.8374C117.376 67.9231 116.833 69.2415 116.833 70.7925C116.833 72.3435 117.376 73.6619 118.462 74.7476C119.547 75.8333 120.866 76.3761 122.417 76.3761Z" fill="#F2BE22"/>
<path d="M60.666 91.4457V96.5707C60.666 100.989 64.2477 104.571 68.666 104.571H142.666C147.084 104.571 150.666 100.989 150.666 96.5707V91.3354" stroke="#F2BE22" stroke-width="8" stroke-linecap="round"/>
</svg>
