<svg width="211" height="140" viewBox="0 0 211 140" fill="none" xmlns="http://www.w3.org/2000/svg">
<path d="M133.906 68.2808C133.906 72.1766 133.906 72.0903 133.906 79.5189C125.219 94.2956 99.619 106.186 99.619 106.186C99.619 106.186 73.9768 94.43 65.335 79.44C65.335 75.9768 65.335 72.0138 65.335 68.2808C93.222 68.2808 79.7729 68.2808 98.7611 68.2808C117.749 68.2808 98.7611 68.2808 133.906 68.2808Z" fill="#F2BE22"/>
<path d="M69.5996 72.6714C69.5996 72.6714 69.5996 97.2476 69.5996 110.005M130.4 72.6714C130.4 72.6714 130.4 97.2476 130.4 110.005" stroke="#F2BE22" stroke-width="8"/>
<rect x="65.333" y="60.9331" width="69.3333" height="14.9333" fill="#F2BE22"/>
<path d="M65.333 60.9332C65.333 49.7641 73.732 40.3815 84.833 39.1496L99.9997 37.4666L115.166 39.1496C126.267 40.3815 134.666 49.7641 134.666 60.9332H65.333Z" fill="#F2BE22"/>
<path d="M99.8096 41.8046V41.8046C99.8096 35.2824 105.097 29.9951 111.619 29.9951H127.333C137.275 29.9951 145.333 38.054 145.333 47.9951V109.995" stroke="#F2BE22" stroke-width="8"/>
<path d="M65.333 60.9331H134.666V65.9998L65.333 66.2664V60.9331Z" fill="white"/>
<path d="M65.333 74.2664H134.666V79.6559H65.333V74.2664Z" fill="white"/>
<path d="M84.3809 106.948H114.857" stroke="#F2BE22" stroke-width="8"/>
</svg>
